# xmcd
#
# Track frame offsets:
#  150
#  12093
#  28511
#  44244
#  64687
#  84885
#  106683
#  120841
#  146169
#  155759
#  169606
#  184626
#  195640
#  206609
#  223439
#  234578
#  254841
#  272931
#  287029
#
# Disc length: 4106 seconds
#
# Revision: 0
# Processed by: cddbd v1.5.1PL0 Copyright (c) Steve Scherf et al.
# Submitted via: Collectorz.com_Music_Collector 6.9
#
DISCID=1a100813
DTITLE=johnny cash and june carter cash - The Last Performances
DYEAR=1900
DGENRE=
TTITLE0=janette carter - Spoken Intro
TTITLE1=johnny cash - Folsom Prison Blues 7-5-03
TTITLE2=johnny cash - I Walk The Line 7-5-03
TTITLE3=johnny cash - Sunday Morning Coming Down 7-5-03
TTITLE4=johnny cash - Ring Of Fire 7-5-03
TTITLE5=johnny cash - Oh Come, Angel Band 7-5-03
TTITLE6=johnny cash - Big River 7-5-03
TTITLE7=johnny cash - Understand Your Man 7-5-03
TTITLE8=janette carter - Spoken
TTITLE9=Jackson 9-28-02
TTITLE10=If I Were A Carpenter 9-28-02
TTITLE11=The Far Side Banks Of Jordan 9-28-02
TTITLE12=june carter cash - Spoken 9-28-02
TTITLE13=Daddy Sang Bass 9-28-02
TTITLE14=johnny cash - Johnny Talks About June Carter (Fade) 6-21-03
TTITLE15=johnny cash - Oh Come, Angel Band 6-21-03
TTITLE16=johnny cash - Far Side Banks Of Jordan (With Laura Cash 6-21-03
TTITLE17=johnny cash - Ring Of Fire 6-21-03
TTITLE18=johnny cash - I Walk The Line 6-21-03
EXTD=
EXTT0=
EXTT1=
EXTT2=
EXTT3=
EXTT4=
EXTT5=
EXTT6=
EXTT7=
EXTT8=
EXTT9=
EXTT10=
EXTT11=
EXTT12=
EXTT13=
EXTT14=
EXTT15=
EXTT16=
EXTT17=
EXTT18=
PLAYORDER=
